<svg id="Layer_1" data-name="Layer 1" xmlns="http://www.w3.org/2000/svg" viewBox="0 0 488.57 267.77"><defs><style>.cls-1{fill:#f02;}.cls-2{fill:none;}</style></defs><title>hm</title><path class="cls-1" d="M740.83,542.83s33.33-2.17,41.33,17c0,0-34.5,111.17-30.5,97.17,0,0,18-1.33,18-.17,0,0,2,.79-4.12,4.92s-2.67.5-9.37,6.08l-.54,1.13-.25,3.25s-1,3.46-2.67,4.33-3.17,2.54-8.58,3.75L717.67,761.5s-1.17,8.83-6.67,10.17-43.33-4-42.5-13c0,0,12-43.67,20.67-68.17l-58,7s-22.5,72.5-30.67,74.67c0,0-15.83,1-18.17.67,0,0-2.71,1.54-2-7.46l24.13-67.12s-42,.88-50.87-5.87c0,0-.88-.18.47-1.87,0,0,4.81-2.31,5.09-4.94s-2.53-3.41-2.53-3.41l56.51-8,45.08-122.42s2.06-3.75,4.5-4.19,12.69-.69,15.31,2.31,1.75,13.06,1.06,13.75S641,670.5,641,670.5l57.5-7.25Z" transform="translate(-553.34 -524.69)"/><path class="cls-1" d="M779.38,706.5s-5.37,19.13-6,19.38-1.25,3.38-2.5,3.25-9.25.75-13.25-1.62a5,5,0,0,1-2.25-4.75l5.25-15.87s-11.69.44-19.19-4.31c0,0,.19-2.27,20.69-1.63h.13l5.81-19.16s1.44-4.16,3.38-5.28,13.38,3.34,14.28,6.38-4.72,17.44-4.25,17.5,5.25,0,5.25,0,11.47,3.06,11.78,4.81-18,.69-18.94,1Z" transform="translate(-553.34 -524.69)"/><path class="cls-1" d="M771.33,462.17" transform="translate(-553.34 -524.69)"/><path class="cls-1" d="M787.75,780.83s7.58,14.08,10.67,11.25,15.92-26.42,15.92-26.42L836,726.5l42-80.17L863.17,724.5l-7.5,43.67s.67,1.83,1.67,2.17-2.5,2.83,23.33,7.33c0,0,18.17.67,20.17-1s2.83-.5,5-5.67,77.42-146.25,76.42-146.25S958.5,780.5,958.5,780.5s1.13,6.81,8,8.63,17.13,1.44,25.25.19c0,0,4.44-2.06,4.69-6.37l9.19-46.5,15.25-78.56,16.88-89.12,3.63-21.25.33-3.92.21-8.46-.17-8.69s-1.12-2.87-14.44-1.25-29,4.69-29,4.69-1.94.06-5.87,8.69L925,665.75l19.33-111.08,1-16s-2.67-10.5-43.83-1.17c0,0-4.12.06-6.62,7.63L868,598.63l-37.75,81.13-41.92,93.08S787.44,778.54,787.75,780.83Z" transform="translate(-553.34 -524.69)"/><path class="cls-2" d="M878.33,863.67" transform="translate(-553.34 -524.69)"/></svg>